<?xml version="1.0" encoding="UTF-8"?>
<svg id="Layer_2" data-name="Layer 2" xmlns="http://www.w3.org/2000/svg" viewBox="0 0 518.39 689.72">
  <defs>
    <style>
      .cls-1 {
        isolation: isolate;
        opacity: .44;
      }

      .cls-1, .cls-2, .cls-3 {
        stroke: #000;
        stroke-miterlimit: 10;
        stroke-width: 3px;
      }

      .cls-1, .cls-3 {
        fill: #006837;
      }

      .cls-2 {
        fill: #c1272d;
      }
    </style>
  </defs>
  <g id="Layer_1-2" data-name="Layer 1">
    <g>
      <g id="Rottentomato">
        <g id="rottentomato">
          <path class="cls-2" d="M208.26,526.28c-13.94-.67-115.49-5.62-141.55,55.09-13.35,31.14-5.4,75.97,19.3,92.21,20.36,13.38,37.24-2.54,99.72,2.63,25.55,2.1,24.91,4.95,57.9,8.12,49.05,4.73,73.54,7.05,86.89-4.42,22.36-19.27,18.66-67.36,0-98.55-30.31-50.59-98.36-53.93-122.25-55.09h0Z"/>
          <path class="cls-3" d="M267.21,538.05c-19.72-2.19-39.32-3.12-59.09-2.63-.04-.58-.17-1.2-.34-1.83-3.4-12.4,4.04-24.76,17.64-31.05,15.6-7.23,1.49-26.5-14.16-19.27-21.51,9.99-33.28,28.37-32.01,47.51-12.75-5.67-24.74-12.27-35.79-19.94-13.52-9.41-33.45,6.29-19.85,15.79,9.22,6.42,18.96,12.27,29.2,17.53-11.65,4.73-22.49,10.62-32.43,17.71-13.52,9.55,6.38,25.29,19.85,15.79,12.37-8.74,26.4-15.08,41.96-19.23,10.71,8.79,17.39,19.36,20.23,31.72,3.23,14.1,30.27,8.12,27.04-5.93-2.17-9.5-6.55-18.51-12.75-26.68,14.37-.13,28.74.45,43.06,2.01,17.64,1.92,25.29-19.54,7.44-21.5Z"/>
          <path class="cls-1" d="M314.78,629.37c-3.06-18.65-24.23-26.72-44.34-32.03-9.56-2.5-16.11,3.08-17.05,9.28-9.86,5.4-15.98,15.03-14.84,25.03,1.87,16.24,22.19,27.08,41.7,26.9,20.45-.18,37.24-12.4,34.47-29.18h.04Z"/>
          <path class="cls-1" d="M199.92,641.68c-18.07,0-18.07,22.31,0,22.31s18.07-22.31,0-22.31Z"/>
        </g>
      </g>
      <path class="cls-2" d="M137.79,230.98c4.05,43.12,6.93,80.68,10.95,116.17,7.82,69.08,8.6,118.5-18.24,123.23-27.27,4.81-44.48-16.38-62.54-85.54-8.39-32.15-26.69-103.26-35.42-150.19C20.54,170.1,1.54,117.03,1.5,73.34S27.61,5.67,47.93,2.09c22.45-3.96,49.31,11.44,63.75,60.92,11.69,40.07,20.61,109.47,26.11,167.97Z"/>
      <path class="cls-2" d="M248.43,78.57c-4.07-24.27,15.77-42.17,38.96-57.54,14.42-9.56,37.99-19.1,78.78-18.09,44.62,1.11,68.83,13.73,84.39,20.7,13.01,5.83,45.44,20.52,59.73,55.41,18.19,44.41-6.41,88.93-11.42,98-25.71,46.51-73.67,66.17-96.52,75.54-45.11,18.49-60.3,8.7-75.97,27.72-12.38,15.02-8.97,28.49-13.27,104.03-3.55,62.43-5.78,76.62-17.01,81.62-18.7,8.32-31.14,6.54-43.79-6.36-16.14-16.46-7.71-33.35-3.73-88.58,4.1-56.86-4.73-73.68,9.17-101.76,10.3-20.81,16.06-34.74,57.66-57.2,34.25-18.49,58.2-11.73,93.97-33.51,43.31-26.38,39.61-47.3,35.35-66.21-5.35-23.76-34.06-38.58-37.98-39.9-37.54-12.67-46.15-10.7-68.88-.3-12.95,5.92-24.21,13.86-31.12,18.73-16.9,11.91-32.34,8.49-40.18,5.86-9.2-3.09-17.52-14.4-18.15-18.15Z"/>
    </g>
  </g>
</svg>