<?xml version="1.0" encoding="UTF-8"?>
<svg id="Layer_2" data-name="Layer 2" xmlns="http://www.w3.org/2000/svg" viewBox="0 0 489.69 370.78">
  <defs>
    <style>
      .cls-1 {
        isolation: isolate;
        opacity: .44;
      }

      .cls-1, .cls-2, .cls-3 {
        stroke: #000;
        stroke-miterlimit: 10;
        stroke-width: 3px;
      }

      .cls-1, .cls-3 {
        fill: #006837;
      }

      .cls-2 {
        fill: #c1272d;
      }
    </style>
  </defs>
  <g id="Layer_1-2" data-name="Layer 1">
    <g id="Rottentomato">
      <g id="rottentomato">
        <path class="cls-2" d="M253.62,80.91c-23.76-1.19-196.79-10.01-241.18,98.1-22.74,55.45-9.2,135.28,32.88,164.19,34.69,23.83,63.45-4.53,169.91,4.69,43.53,3.73,42.44,8.82,98.65,14.46,83.58,8.42,125.3,12.55,148.04-7.86,38.1-34.32,31.8-119.95,0-175.47-51.64-90.08-167.6-96.04-208.3-98.1h0Z"/>
        <path class="cls-3" d="M354.08,101.88c-33.61-3.89-67-5.56-100.67-4.69-.07-1.03-.29-2.14-.58-3.26-5.79-22.08,6.88-44.09,30.06-55.29,26.58-12.87,2.54-47.18-24.12-34.32-36.65,17.79-56.71,50.52-54.54,84.6-21.73-10.09-42.15-21.84-60.98-35.51-23.03-16.76-57,11.2-33.82,28.12,15.72,11.44,32.3,21.84,49.76,31.22-19.85,8.42-38.31,18.91-55.26,31.54-23.03,17,10.86,45.04,33.82,28.12,21.08-15.57,44.98-26.85,71.49-34.24,18.25,15.65,29.62,34.47,34.48,56.48,5.5,25.1,51.57,14.46,46.06-10.56-3.69-16.92-11.15-32.97-21.73-47.5,24.48-.24,48.96.79,73.37,3.57,30.06,3.42,43.09-34.79,12.67-38.29Z"/>
        <path class="cls-1" d="M435.13,264.49c-5.21-33.2-41.28-47.58-75.54-57.03-16.3-4.45-27.45,5.48-29.04,16.52-16.8,9.61-27.23,26.77-25.28,44.56,3.19,28.91,37.81,48.22,71.05,47.9,34.84-.32,63.45-22.08,58.74-51.95h.07Z"/>
        <path class="cls-1" d="M239.43,286.41c-30.78,0-30.78,39.72,0,39.72s30.78-39.72,0-39.72Z"/>
      </g>
    </g>
  </g>
</svg>